M48
; DRILL file {KiCad 7.0.10-7.0.10~ubuntu22.04.1} date Tue 20 Feb 2024 08:22:57 PM
; FORMAT={-:-/ absolute / metric / decimal}
; #@! TF.CreationDate,2024-02-20T20:22:57-05:00
; #@! TF.GenerationSoftware,Kicad,Pcbnew,7.0.10-7.0.10~ubuntu22.04.1
; #@! TF.FileFunction,Plated,1,2,PTH
FMAT,2
METRIC
; #@! TA.AperFunction,Plated,PTH,ViaDrill
T1C0.300
; #@! TA.AperFunction,Plated,PTH,ComponentDrill
T2C0.300
; #@! TA.AperFunction,Plated,PTH,ViaDrill
T3C0.400
; #@! TA.AperFunction,Plated,PTH,ComponentDrill
T4C0.400
; #@! TA.AperFunction,Plated,PTH,ComponentDrill
T5C0.500
; #@! TA.AperFunction,Plated,PTH,ComponentDrill
T6C0.600
; #@! TA.AperFunction,Plated,PTH,ComponentDrill
T7C1.000
; #@! TA.AperFunction,Plated,PTH,ComponentDrill
T8C3.200
%
G90
G05
T1
X7.3Y65.9
X7.3Y63.5
X7.3Y60.9
X7.3Y58.5
X7.3Y55.9
X7.3Y53.3
X7.3Y50.9
X7.3Y48.3
X9.1Y8.1
X10.7Y4.1
X10.7Y6.7
X12.2Y75.0
X12.3Y69.3
X12.4Y76.8
X16.23Y6.8
X16.3Y4.2
X21.0Y73.3
X21.0Y70.3
X21.0Y64.5
X22.647Y37.06
X22.725Y19.525
X22.725Y22.025
X22.75Y35.0
X22.75Y32.25
X22.75Y29.75
X22.75Y27.25
X22.75Y24.75
X24.0Y43.0
X24.5Y64.5
X24.5Y17.5
X24.7Y21.625
X25.0Y45.0
X25.0Y4.0
X25.386Y22.75
X25.5Y53.5
X25.5Y47.5
X25.5Y14.5
X25.5Y7.0
X26.0Y66.0
X26.0Y70.287
X26.0Y21.0
X26.25Y24.0
X26.5Y58.0
X26.5Y44.5
X27.0Y60.5
X27.3Y41.0
X28.0Y66.0
X28.4Y72.8
X28.5Y38.5
X29.5Y13.0
X30.0Y62.5
X30.0Y51.0
X30.3Y13.6
X30.348Y48.375
X31.0Y63.5
X31.06Y19.56
X31.7Y18.5
X31.8Y64.3
X32.5Y49.0
X32.5Y46.0
X32.5Y39.5
X32.5Y33.0
X32.5Y32.0
X32.5Y30.5
X37.5Y46.0
X38.0Y61.0
X38.0Y57.0
X38.15Y43.95
X39.0Y63.765
X39.045Y44.23
X41.5Y13.5
X43.598Y47.475
X43.885Y39.5
X44.0Y60.2
X44.5Y46.5
X45.0Y50.04
X45.775Y13.956
X46.0Y55.9
X46.0Y44.5
X46.0Y32.0
X47.0Y37.5
X47.0Y33.5
X47.375Y56.5
X47.375Y52.5
X48.0Y57.5
X48.0Y44.0
X48.848Y60.375
X49.0Y16.5
X49.6Y74.6
X50.5Y2.0
X51.0Y42.5
X52.0Y61.0
X53.0Y5.0
X53.5Y68.5
X53.5Y35.0
X53.5Y72.0
X53.9Y10.5
X53.9Y8.3
X54.5Y54.0
X54.5Y49.0
X55.0Y1.3
X56.0Y22.0
X56.2Y17.5
X57.0Y25.5
X57.0Y18.5
X57.4Y76.3
X57.5Y57.145
X57.5Y61.0
X57.5Y55.355
X57.5Y21.2
X57.5Y19.6
X57.7Y24.5
X58.0Y50.0
X58.0Y43.25
X58.4Y68.5
X58.4Y51.3
X58.5Y61.83
X58.5Y59.5
X58.5Y33.5
X58.5Y32.0
X59.0Y56.5
X59.1Y76.3
X60.9Y1.3
X61.875Y12.5
X62.26Y71.876
X62.5Y20.5
X63.0Y60.0
X63.5Y48.995
X63.51Y1.125
X64.0Y36.315
X64.0Y74.0
X67.0Y56.5
X67.0Y51.5
X67.2Y17.7
X67.37Y0.9
X67.5Y68.5
X67.5Y63.0
X67.8Y32.5
X67.825Y61.069
X68.0Y35.0
X68.5Y71.5
X69.5Y18.5
X71.0Y13.595
X71.5Y71.5
X72.325Y47.5
X72.5Y65.0
X73.0Y45.0
X73.045Y19.5
X73.131Y53.25
X73.375Y32.5
X73.5Y50.955
X73.5Y42.0
X73.5Y2.0
X73.6Y75.1
X73.625Y17.0
X73.8Y71.8
X74.0Y31.5
X74.5Y63.0
X74.5Y41.0
X74.9Y65.5
X75.8Y72.5
X75.8Y57.5
X75.954Y76.682
X75.975Y44.2
X77.5Y39.8
X77.5Y30.0
X77.7Y77.7
X78.3Y33.1
X78.3Y22.9
X79.5Y50.125
X79.5Y46.5
X80.5Y56.5
X80.5Y32.9
X80.542Y27.858
X80.715Y27.026
X81.0Y51.0
X81.1Y31.3
X81.9Y32.7
X81.9Y27.1
X81.9Y23.3
X82.0Y56.5
X82.5Y53.0
X83.5Y33.1
X83.5Y26.9
X84.0Y60.0
X84.0Y38.5
X84.993Y50.125
X85.0Y21.3
X85.1Y23.3
X89.5Y66.5
X91.0Y43.625
X91.5Y18.875
X92.0Y62.625
X92.5Y18.5
X93.0Y52.0
X93.375Y43.0
X93.5Y17.5
X94.0Y49.0
X94.0Y19.5
X95.0Y48.0
X95.0Y42.0
X95.0Y20.5
X96.0Y45.5
X96.0Y41.5
X96.5Y40.0
X97.0Y62.0
X97.0Y43.0
X98.0Y72.5
X99.0Y73.5
X103.0Y64.5
T2
X25.6Y46.35
X31.3Y39.4
X54.3Y47.85
T3
X7.7Y69.3
X8.0Y42.28
X8.9Y41.9
X16.5Y12.5
X17.15Y75.5
X17.3Y72.1
X17.5Y79.0
X17.5Y13.5
X18.5Y13.0
X18.6Y79.0
X19.0Y10.0
X21.2Y74.6
X21.5Y42.0
X22.2Y41.2
X22.2Y6.3
X23.0Y5.7
X24.3Y70.2
X28.4Y69.9
X28.5Y76.9
X32.5Y55.1
X36.3Y9.5
X37.4Y9.5
X37.9Y79.0
X39.0Y79.0
X43.1Y34.7
X44.1Y55.1
X56.03Y53.7
X56.03Y52.7
X56.2Y9.5
X56.991Y13.28
X57.5Y58.5
X57.6Y9.5
X57.991Y13.22
X58.5Y48.1
X65.0Y58.8
X66.5Y71.0
X66.8Y58.0
X67.0Y77.0
X67.1Y42.3
X67.5Y19.5
X67.92Y16.9
X69.9Y58.9
X69.9Y56.4
X72.1Y19.5
X72.1Y16.9
X72.302Y42.08
X73.7Y52.3
X74.9Y54.3
X75.8Y54.3
X76.7Y75.9
X77.7Y11.2
X78.5Y10.5
X78.5Y6.4
X79.0Y5.5
X93.3Y70.7
X93.7Y67.1
X94.9Y16.7
X95.9Y16.3
X96.1Y12.1
X96.1Y7.9
T4
X0.9Y71.8
X0.9Y66.9
X0.9Y61.9
X0.9Y56.82
X0.9Y51.74
X0.9Y46.66
X0.9Y41.58
X0.9Y36.5
X0.9Y31.42
X0.9Y26.34
X0.9Y21.26
X0.9Y16.18
X3.9Y63.8
X5.4Y11.2
X8.6Y44.1
X10.7Y12.0
X11.1Y0.8
X12.7Y80.2
X15.1Y65.9
X15.1Y63.6
X15.1Y58.3
X15.1Y53.1
X15.1Y47.3
X15.1Y29.6
X15.1Y22.1
X15.1Y16.0
X15.2Y40.2
X15.5Y0.8
X16.7Y80.2
X18.4Y63.6
X18.4Y58.3
X18.4Y53.1
X18.4Y47.3
X18.4Y44.1
X18.4Y29.6
X18.4Y22.1
X18.4Y16.0
X19.9Y13.8
X20.7Y80.2
X20.7Y6.0
X22.0Y46.6
X23.1Y68.2
X23.1Y64.9
X23.1Y37.9
X23.5Y0.8
X24.7Y80.2
X25.0Y54.8
X25.1Y19.9
X25.8Y37.2
X25.8Y35.0
X25.8Y32.4
X25.8Y29.6
X25.8Y27.0
X26.2Y40.2
X27.4Y61.9
X28.1Y13.8
X28.5Y0.8
X28.7Y80.2
X31.6Y35.0
X31.6Y32.5
X31.6Y29.6
X31.6Y27.0
X32.2Y50.5
X32.3Y59.0
X32.3Y42.4
X32.5Y65.2
X32.7Y80.2
X33.5Y0.8
X35.1Y66.6
X35.1Y15.6
X36.7Y80.2
X37.4Y29.8
X38.0Y8.1
X38.0Y0.8
X40.05Y25.9
X40.05Y15.6
X40.05Y8.1
X42.8Y28.5
X42.8Y13.5
X42.8Y8.1
X44.7Y79.4
X45.1Y51.35
X47.0Y45.8
X47.0Y38.85
X47.7Y79.4
X47.7Y73.9
X48.0Y34.5
X48.3Y62.1
X50.7Y79.4
X50.8Y57.6
X51.0Y51.3
X51.0Y41.0
X51.0Y18.7
X51.1Y26.9
X51.7Y3.0
X53.7Y79.4
X55.3Y55.1
X55.6Y69.4
X55.6Y60.8
X56.7Y79.4
X58.0Y41.45
X58.0Y35.8
X58.0Y30.3
X58.1Y74.2
X58.3Y67.0
X58.4Y14.9
X60.9Y7.9
X64.1Y76.2
X64.1Y10.4
X65.0Y67.0
X67.3Y27.2
X67.3Y24.7
X67.3Y22.1
X67.5Y69.7
X68.5Y80.2
X69.9Y67.0
X70.2Y70.2
X72.1Y33.6
X73.3Y24.6
X73.5Y80.2
X73.5Y0.8
X73.6Y67.2
X74.4Y50.0
X74.4Y47.7
X74.4Y44.8
X74.5Y55.4
X74.7Y75.8
X75.3Y39.3
X75.3Y30.7
X75.5Y14.3
X76.7Y10.4
X77.6Y60.7
X77.8Y67.2
X78.5Y80.2
X78.5Y0.8
X79.3Y30.0
X80.0Y52.4
X80.1Y10.6
X80.3Y8.5
X80.9Y16.3
X82.3Y30.0
X82.7Y47.9
X83.1Y21.5
X83.5Y80.2
X83.5Y0.8
X85.2Y39.2
X85.2Y7.6
X85.8Y72.2
X85.8Y67.2
X86.9Y11.1
X88.5Y80.2
X88.5Y0.8
X90.8Y45.1
X91.3Y72.2
X93.5Y80.2
X93.5Y0.8
X93.7Y14.7
X94.8Y18.3
X96.5Y46.8
X96.9Y72.2
X103.7Y65.8
X103.7Y51.2
X103.7Y46.58
X103.7Y41.5
X103.7Y36.42
X103.7Y31.34
X103.7Y26.26
X103.7Y21.18
X103.7Y16.1
X103.7Y11.02
T6
X90.145Y38.989
X90.145Y36.489
X90.145Y33.989
X90.145Y31.489
X90.145Y28.989
X90.145Y26.489
X90.145Y23.989
X90.145Y21.489
X93.145Y38.989
X93.145Y36.489
X93.145Y33.989
X93.145Y31.489
X93.145Y28.989
X93.145Y26.489
X93.145Y23.989
X93.145Y21.489
T7
X2.1Y68.25
X2.1Y65.71
X2.1Y63.17
X2.1Y60.63
X2.1Y58.09
X2.1Y55.55
X2.1Y53.01
X2.1Y50.47
X2.1Y47.93
X2.1Y45.39
X2.1Y42.85
X2.1Y40.31
X2.1Y37.77
X2.1Y35.23
X2.1Y32.69
X2.1Y30.15
X2.1Y27.61
X2.1Y25.07
X2.1Y22.53
X2.1Y19.99
X2.1Y17.45
X2.1Y14.91
X2.1Y12.37
X2.1Y9.83
X9.66Y71.1
X12.2Y71.1
X27.875Y5.725
X27.875Y3.185
X30.415Y5.725
X30.415Y3.185
X33.5Y73.5
X33.5Y70.96
X35.5Y5.735
X35.5Y3.195
X38.04Y5.735
X38.04Y3.195
X40.58Y5.735
X40.58Y3.195
X43.12Y5.735
X43.12Y3.195
X45.66Y5.735
X45.66Y3.195
X48.2Y5.735
X48.2Y3.195
X51.125Y16.15
X53.665Y16.15
X58.36Y5.735
X58.36Y3.195
X60.9Y5.735
X60.9Y3.195
X63.44Y5.735
X63.44Y3.195
X65.98Y5.735
X65.98Y3.195
X68.52Y5.735
X68.52Y3.195
X71.06Y5.735
X71.06Y3.195
X87.7Y70.805
X87.7Y68.265
X87.7Y65.725
X87.7Y60.66
X87.7Y58.12
X87.7Y55.58
X87.7Y53.04
X87.7Y50.5
X87.7Y47.96
X101.3Y68.26
X101.3Y65.72
X101.3Y63.18
X101.3Y60.64
X101.3Y58.1
X101.3Y55.56
X101.3Y53.02
X101.3Y50.48
X101.3Y47.94
X101.3Y45.4
X101.3Y42.86
X101.3Y40.32
X101.3Y37.78
X101.3Y35.24
X101.3Y32.7
X101.3Y30.16
X101.3Y27.62
X101.3Y25.08
X101.3Y22.54
X101.3Y20.0
X101.3Y17.46
X101.3Y14.92
X101.3Y12.38
X101.3Y9.84
T8
X3.75Y77.25
X3.75Y3.75
X100.75Y77.25
X100.75Y3.75
T5
G00X9.16Y5.75
M15
G01X9.16Y5.05
M16
G05
G00X9.16Y1.95
M15
G01X9.16Y1.25
M16
G05
G00X17.8Y5.75
M15
G01X17.8Y5.05
M16
G05
G00X17.8Y1.95
M15
G01X17.8Y1.25
M16
G05
M30
