G04 #@! TF.GenerationSoftware,KiCad,Pcbnew,7.0.10-7.0.10~ubuntu22.04.1*
G04 #@! TF.CreationDate,2024-02-20T20:22:53-05:00*
G04 #@! TF.ProjectId,mpw-mb1,6d70772d-6d62-4312-9e6b-696361645f70,2.2.6*
G04 #@! TF.SameCoordinates,PX35e1f20PY8044ea0*
G04 #@! TF.FileFunction,Soldermask,Bot*
G04 #@! TF.FilePolarity,Negative*
%FSLAX46Y46*%
G04 Gerber Fmt 4.6, Leading zero omitted, Abs format (unit mm)*
G04 Created by KiCad (PCBNEW 7.0.10-7.0.10~ubuntu22.04.1) date 2024-02-20 20:22:53*
%MOMM*%
%LPD*%
G01*
G04 APERTURE LIST*
%ADD10C,0.900000*%
%ADD11R,1.700000X1.700000*%
%ADD12O,1.700000X1.700000*%
%ADD13C,6.400000*%
%ADD14C,1.700000*%
%ADD15O,1.204000X2.204000*%
%ADD16R,3.500000X1.700000*%
%ADD17R,1.700000X3.500000*%
G04 APERTURE END LIST*
D10*
G04 #@! TO.C,JP7*
X93145000Y23988570D03*
X90145000Y23988570D03*
G04 #@! TD*
D11*
G04 #@! TO.C,J4*
X9660000Y71100000D03*
D12*
X12200000Y71100000D03*
G04 #@! TD*
D10*
G04 #@! TO.C,JP1*
X93145000Y38988570D03*
X90145000Y38988570D03*
G04 #@! TD*
D13*
G04 #@! TO.C,MT3*
X3750000Y77250000D03*
G04 #@! TD*
D10*
G04 #@! TO.C,JP3*
X93145000Y33988570D03*
X90145000Y33988570D03*
G04 #@! TD*
G04 #@! TO.C,JP8*
X93145000Y21488570D03*
X90145000Y21488570D03*
G04 #@! TD*
D11*
G04 #@! TO.C,J3*
X48200000Y5735000D03*
D12*
X45660000Y5735000D03*
X43120000Y5735000D03*
X40580000Y5735000D03*
X38040000Y5735000D03*
D14*
X35500000Y5735000D03*
D12*
X48200000Y3195000D03*
X45660000Y3195000D03*
X43120000Y3195000D03*
X40580000Y3195000D03*
X38040000Y3195000D03*
X35500000Y3195000D03*
G04 #@! TD*
D11*
G04 #@! TO.C,J8*
X51125000Y16150000D03*
D12*
X53665000Y16150000D03*
G04 #@! TD*
D13*
G04 #@! TO.C,MT4*
X100750000Y77250000D03*
G04 #@! TD*
G04 #@! TO.C,MT2*
X100750000Y3750000D03*
G04 #@! TD*
D11*
G04 #@! TO.C,J5*
X87700000Y70805000D03*
D12*
X87700000Y68265000D03*
X87700000Y65725000D03*
G04 #@! TD*
D11*
G04 #@! TO.C,J10*
X2100000Y9830000D03*
D12*
X2100000Y12370000D03*
X2100000Y14910000D03*
X2100000Y17450000D03*
X2100000Y19990000D03*
X2100000Y22530000D03*
X2100000Y25070000D03*
X2100000Y27610000D03*
X2100000Y30150000D03*
X2100000Y32690000D03*
X2100000Y35230000D03*
X2100000Y37770000D03*
X2100000Y40310000D03*
X2100000Y42850000D03*
X2100000Y45390000D03*
X2100000Y47930000D03*
X2100000Y50470000D03*
X2100000Y53010000D03*
X2100000Y55550000D03*
X2100000Y58090000D03*
X2100000Y60630000D03*
X2100000Y63170000D03*
X2100000Y65710000D03*
X2100000Y68250000D03*
G04 #@! TD*
D10*
G04 #@! TO.C,JP2*
X93145000Y36488570D03*
X90145000Y36488570D03*
G04 #@! TD*
D11*
G04 #@! TO.C,J11*
X101300000Y68260000D03*
D12*
X101300000Y65720000D03*
X101300000Y63180000D03*
X101300000Y60640000D03*
X101300000Y58100000D03*
X101300000Y55560000D03*
X101300000Y53020000D03*
X101300000Y50480000D03*
X101300000Y47940000D03*
X101300000Y45400000D03*
X101300000Y42860000D03*
X101300000Y40320000D03*
X101300000Y37780000D03*
X101300000Y35240000D03*
X101300000Y32700000D03*
X101300000Y30160000D03*
X101300000Y27620000D03*
X101300000Y25080000D03*
X101300000Y22540000D03*
X101300000Y20000000D03*
X101300000Y17460000D03*
X101300000Y14920000D03*
X101300000Y12380000D03*
X101300000Y9840000D03*
G04 #@! TD*
D10*
G04 #@! TO.C,JP5*
X93145000Y28988570D03*
X90145000Y28988570D03*
G04 #@! TD*
G04 #@! TO.C,JP6*
X93145000Y26488570D03*
X90145000Y26488570D03*
G04 #@! TD*
D11*
G04 #@! TO.C,J1*
X87700000Y47960000D03*
D12*
X87700000Y50500000D03*
X87700000Y53040000D03*
X87700000Y55580000D03*
X87700000Y58120000D03*
X87700000Y60660000D03*
G04 #@! TD*
D15*
G04 #@! TO.C,J6*
X9160000Y5400000D03*
X17800000Y5400000D03*
X9160000Y1600000D03*
X17800000Y1600000D03*
G04 #@! TD*
D11*
G04 #@! TO.C,J9*
X71060000Y5735000D03*
D12*
X68520000Y5735000D03*
X65980000Y5735000D03*
X63440000Y5735000D03*
X60900000Y5735000D03*
D14*
X58360000Y5735000D03*
D12*
X71060000Y3195000D03*
X68520000Y3195000D03*
X65980000Y3195000D03*
X63440000Y3195000D03*
X60900000Y3195000D03*
X58360000Y3195000D03*
G04 #@! TD*
D10*
G04 #@! TO.C,JP4*
X93145000Y31488570D03*
X90145000Y31488570D03*
G04 #@! TD*
D11*
G04 #@! TO.C,J12*
X33500000Y73500000D03*
D12*
X33500000Y70960000D03*
G04 #@! TD*
D13*
G04 #@! TO.C,MT1*
X3750000Y3750000D03*
G04 #@! TD*
D11*
G04 #@! TO.C,J2*
X27875000Y5725000D03*
D12*
X30415000Y5725000D03*
X27875000Y3185000D03*
X30415000Y3185000D03*
G04 #@! TD*
D16*
G04 #@! TO.C,U4*
X60900000Y78940000D03*
X60900000Y76400000D03*
X60900000Y73860000D03*
X60900000Y71320000D03*
X60900000Y68780000D03*
X60900000Y66240000D03*
X60900000Y63700000D03*
X60900000Y61160000D03*
X60900000Y58620000D03*
X60900000Y56080000D03*
X60900000Y53540000D03*
X60900000Y51000000D03*
X60900000Y48460000D03*
X60900000Y45920000D03*
X60900000Y43380000D03*
X60900000Y40840000D03*
X60900000Y38300000D03*
X60900000Y35760000D03*
X60900000Y33220000D03*
X60900000Y30680000D03*
X41320000Y30680000D03*
X41320000Y33220000D03*
X41320000Y35760000D03*
X41320000Y38300000D03*
X41320000Y40840000D03*
X41320000Y43380000D03*
X41320000Y45920000D03*
X41320000Y48460000D03*
X41320000Y51000000D03*
X41320000Y53540000D03*
X41320000Y56080000D03*
X41320000Y58620000D03*
X41320000Y61160000D03*
X41320000Y63700000D03*
X41320000Y66240000D03*
X41320000Y68780000D03*
X41320000Y71320000D03*
X41320000Y73860000D03*
X41320000Y76400000D03*
X41320000Y78940000D03*
D17*
X53650000Y30010000D03*
X51110000Y30010000D03*
X48570000Y30010000D03*
G04 #@! TD*
M02*
