G04 #@! TF.GenerationSoftware,KiCad,Pcbnew,7.0.10-7.0.10~ubuntu22.04.1*
G04 #@! TF.CreationDate,2024-02-20T20:22:53-05:00*
G04 #@! TF.ProjectId,mpw-mb1,6d70772d-6d62-4312-9e6b-696361645f70,2.2.6*
G04 #@! TF.SameCoordinates,PX35e1f20PY8044ea0*
G04 #@! TF.FileFunction,Paste,Top*
G04 #@! TF.FilePolarity,Positive*
%FSLAX46Y46*%
G04 Gerber Fmt 4.6, Leading zero omitted, Abs format (unit mm)*
G04 Created by KiCad (PCBNEW 7.0.10-7.0.10~ubuntu22.04.1) date 2024-02-20 20:22:53*
%MOMM*%
%LPD*%
G01*
G04 APERTURE LIST*
G04 Aperture macros list*
%AMRoundRect*
0 Rectangle with rounded corners*
0 $1 Rounding radius*
0 $2 $3 $4 $5 $6 $7 $8 $9 X,Y pos of 4 corners*
0 Add a 4 corners polygon primitive as box body*
4,1,4,$2,$3,$4,$5,$6,$7,$8,$9,$2,$3,0*
0 Add four circle primitives for the rounded corners*
1,1,$1+$1,$2,$3*
1,1,$1+$1,$4,$5*
1,1,$1+$1,$6,$7*
1,1,$1+$1,$8,$9*
0 Add four rect primitives between the rounded corners*
20,1,$1+$1,$2,$3,$4,$5,0*
20,1,$1+$1,$4,$5,$6,$7,0*
20,1,$1+$1,$6,$7,$8,$9,0*
20,1,$1+$1,$8,$9,$2,$3,0*%
G04 Aperture macros list end*
%ADD10RoundRect,0.200000X-0.275000X0.200000X-0.275000X-0.200000X0.275000X-0.200000X0.275000X0.200000X0*%
%ADD11RoundRect,0.225000X0.250000X-0.225000X0.250000X0.225000X-0.250000X0.225000X-0.250000X-0.225000X0*%
%ADD12RoundRect,0.200000X0.275000X-0.200000X0.275000X0.200000X-0.275000X0.200000X-0.275000X-0.200000X0*%
%ADD13RoundRect,0.225000X-0.225000X-0.250000X0.225000X-0.250000X0.225000X0.250000X-0.225000X0.250000X0*%
%ADD14RoundRect,0.250000X0.475000X-0.250000X0.475000X0.250000X-0.475000X0.250000X-0.475000X-0.250000X0*%
%ADD15RoundRect,0.200000X-0.200000X-0.275000X0.200000X-0.275000X0.200000X0.275000X-0.200000X0.275000X0*%
%ADD16RoundRect,0.250000X-0.475000X0.250000X-0.475000X-0.250000X0.475000X-0.250000X0.475000X0.250000X0*%
%ADD17RoundRect,0.150000X0.150000X-0.650000X0.150000X0.650000X-0.150000X0.650000X-0.150000X-0.650000X0*%
%ADD18RoundRect,0.225000X0.225000X0.250000X-0.225000X0.250000X-0.225000X-0.250000X0.225000X-0.250000X0*%
%ADD19RoundRect,0.200000X0.200000X0.275000X-0.200000X0.275000X-0.200000X-0.275000X0.200000X-0.275000X0*%
%ADD20RoundRect,0.225000X-0.250000X0.225000X-0.250000X-0.225000X0.250000X-0.225000X0.250000X0.225000X0*%
%ADD21R,1.500000X1.400000*%
%ADD22R,3.800000X2.000000*%
%ADD23R,2.200000X1.100000*%
%ADD24RoundRect,0.200000X0.300000X-0.950000X0.300000X0.950000X-0.300000X0.950000X-0.300000X-0.950000X0*%
%ADD25R,1.000000X2.300000*%
%ADD26R,2.000000X3.800000*%
%ADD27RoundRect,0.243750X-0.243750X-0.456250X0.243750X-0.456250X0.243750X0.456250X-0.243750X0.456250X0*%
%ADD28RoundRect,0.200000X0.200000X0.250000X-0.200000X0.250000X-0.200000X-0.250000X0.200000X-0.250000X0*%
%ADD29R,2.000000X1.500000*%
%ADD30R,3.150000X1.000000*%
%ADD31RoundRect,0.218750X0.256250X-0.218750X0.256250X0.218750X-0.256250X0.218750X-0.256250X-0.218750X0*%
%ADD32R,0.700000X1.150000*%
%ADD33R,0.800000X1.150000*%
%ADD34R,0.900000X1.150000*%
%ADD35RoundRect,0.218750X-0.218750X-0.256250X0.218750X-0.256250X0.218750X0.256250X-0.218750X0.256250X0*%
%ADD36RoundRect,0.113000X1.107000X0.452000X-1.107000X0.452000X-1.107000X-0.452000X1.107000X-0.452000X0*%
G04 APERTURE END LIST*
D10*
G04 #@! TO.C,R13*
X80600000Y59075000D03*
X80600000Y57425000D03*
G04 #@! TD*
D11*
G04 #@! TO.C,C19*
X62960000Y69475000D03*
X62960000Y71025000D03*
G04 #@! TD*
D12*
G04 #@! TO.C,R22*
X84485000Y77575000D03*
X84485000Y79225000D03*
G04 #@! TD*
D13*
G04 #@! TO.C,C21*
X58475000Y55040000D03*
X60025000Y55040000D03*
G04 #@! TD*
D12*
G04 #@! TO.C,R14*
X14070000Y10425000D03*
X14070000Y12075000D03*
G04 #@! TD*
D14*
G04 #@! TO.C,C8*
X80300000Y5050000D03*
X80300000Y6950000D03*
G04 #@! TD*
D15*
G04 #@! TO.C,R5*
X8175000Y58430000D03*
X9825000Y58430000D03*
G04 #@! TD*
D16*
G04 #@! TO.C,C9*
X91700000Y16650000D03*
X91700000Y14750000D03*
G04 #@! TD*
D15*
G04 #@! TO.C,R10*
X22650000Y71287500D03*
X24300000Y71287500D03*
G04 #@! TD*
G04 #@! TO.C,R1*
X8175000Y48390000D03*
X9825000Y48390000D03*
G04 #@! TD*
D13*
G04 #@! TO.C,C22*
X58475000Y19640000D03*
X60025000Y19640000D03*
G04 #@! TD*
D12*
G04 #@! TO.C,R16*
X80700000Y44175000D03*
X80700000Y45825000D03*
G04 #@! TD*
G04 #@! TO.C,R25*
X74985000Y77575000D03*
X74985000Y79225000D03*
G04 #@! TD*
G04 #@! TO.C,R19*
X79200000Y44175000D03*
X79200000Y45825000D03*
G04 #@! TD*
D17*
G04 #@! TO.C,U1*
X77695000Y47900000D03*
X78965000Y47900000D03*
X80235000Y47900000D03*
X81505000Y47900000D03*
X81505000Y55100000D03*
X80235000Y55100000D03*
X78965000Y55100000D03*
X77695000Y55100000D03*
G04 #@! TD*
D15*
G04 #@! TO.C,R9*
X8175000Y65960000D03*
X9825000Y65960000D03*
G04 #@! TD*
D11*
G04 #@! TO.C,C14*
X19900000Y75400000D03*
X19900000Y76950000D03*
G04 #@! TD*
D18*
G04 #@! TO.C,C2*
X35275000Y8400000D03*
X33725000Y8400000D03*
G04 #@! TD*
D19*
G04 #@! TO.C,R28*
X88825000Y34017142D03*
X87175000Y34017142D03*
G04 #@! TD*
G04 #@! TO.C,R26*
X88825000Y39028570D03*
X87175000Y39028570D03*
G04 #@! TD*
D20*
G04 #@! TO.C,C27*
X75800000Y67175000D03*
X75800000Y65625000D03*
G04 #@! TD*
D15*
G04 #@! TO.C,R3*
X8175000Y53410000D03*
X9825000Y53410000D03*
G04 #@! TD*
D13*
G04 #@! TO.C,C7*
X18325000Y70300000D03*
X19875000Y70300000D03*
G04 #@! TD*
D10*
G04 #@! TO.C,R18*
X82300000Y59075000D03*
X82300000Y57425000D03*
G04 #@! TD*
D18*
G04 #@! TO.C,C16*
X60025000Y21250000D03*
X58475000Y21250000D03*
G04 #@! TD*
D21*
G04 #@! TO.C,SW3*
X8350000Y75100000D03*
X14850000Y75100000D03*
G04 #@! TD*
D10*
G04 #@! TO.C,R17*
X79000000Y59075000D03*
X79000000Y57425000D03*
G04 #@! TD*
D19*
G04 #@! TO.C,R21*
X19925000Y71800000D03*
X18275000Y71800000D03*
G04 #@! TD*
D18*
G04 #@! TO.C,C5*
X92175000Y67100000D03*
X90625000Y67100000D03*
G04 #@! TD*
D22*
G04 #@! TO.C,TP7*
X93400000Y7400000D03*
G04 #@! TD*
D20*
G04 #@! TO.C,C6*
X77000000Y59295000D03*
X77000000Y57745000D03*
G04 #@! TD*
D19*
G04 #@! TO.C,R7*
X24300000Y72787500D03*
X22650000Y72787500D03*
G04 #@! TD*
D11*
G04 #@! TO.C,C23*
X64500000Y69475000D03*
X64500000Y71025000D03*
G04 #@! TD*
D14*
G04 #@! TO.C,C11*
X79600000Y12750000D03*
X79600000Y14650000D03*
G04 #@! TD*
D13*
G04 #@! TO.C,C3*
X33725000Y10200000D03*
X35275000Y10200000D03*
G04 #@! TD*
D15*
G04 #@! TO.C,R20*
X18275000Y73300000D03*
X19925000Y73300000D03*
G04 #@! TD*
D12*
G04 #@! TO.C,R15*
X12250000Y10425000D03*
X12250000Y12075000D03*
G04 #@! TD*
D15*
G04 #@! TO.C,R2*
X8175000Y50900000D03*
X9825000Y50900000D03*
G04 #@! TD*
D23*
G04 #@! TO.C,SW4*
X12100000Y66190000D03*
X12100000Y63650000D03*
X12100000Y61110000D03*
X12100000Y58570000D03*
X12100000Y56030000D03*
X12100000Y53490000D03*
X12100000Y50950000D03*
X12100000Y48410000D03*
X20900000Y48410000D03*
X20900000Y50950000D03*
X20900000Y53490000D03*
X20900000Y56030000D03*
X20900000Y58570000D03*
X20900000Y61110000D03*
X20900000Y63650000D03*
X20900000Y66190000D03*
G04 #@! TD*
D10*
G04 #@! TO.C,R34*
X76750000Y71825000D03*
X76750000Y70175000D03*
G04 #@! TD*
D19*
G04 #@! TO.C,R32*
X88825000Y23994286D03*
X87175000Y23994286D03*
G04 #@! TD*
D24*
G04 #@! TO.C,U5*
X78905000Y24708570D03*
D25*
X80405000Y24708570D03*
X81905000Y24708570D03*
X83405000Y24708570D03*
X84905000Y24708570D03*
X84905000Y35608570D03*
X83405000Y35608570D03*
X81905000Y35608570D03*
X80405000Y35608570D03*
X78905000Y35608570D03*
G04 #@! TD*
D26*
G04 #@! TO.C,TP8*
X92200000Y11500000D03*
G04 #@! TD*
D19*
G04 #@! TO.C,R27*
X88825000Y36522856D03*
X87175000Y36522856D03*
G04 #@! TD*
G04 #@! TO.C,R31*
X88825000Y26500000D03*
X87175000Y26500000D03*
G04 #@! TD*
D13*
G04 #@! TO.C,C18*
X58475000Y57640000D03*
X60025000Y57640000D03*
G04 #@! TD*
D27*
G04 #@! TO.C,F1*
X15662500Y10200000D03*
X17537500Y10200000D03*
G04 #@! TD*
D20*
G04 #@! TO.C,C12*
X94000000Y4775000D03*
X94000000Y3225000D03*
G04 #@! TD*
D12*
G04 #@! TO.C,R12*
X77700000Y44175000D03*
X77700000Y45825000D03*
G04 #@! TD*
D13*
G04 #@! TO.C,C25*
X58475000Y16500000D03*
X60025000Y16500000D03*
G04 #@! TD*
G04 #@! TO.C,C17*
X58475000Y52340000D03*
X60025000Y52340000D03*
G04 #@! TD*
D28*
G04 #@! TO.C,X1*
X92025000Y68965000D03*
X92025000Y70815000D03*
X90575000Y70815000D03*
X90575000Y68965000D03*
G04 #@! TD*
D13*
G04 #@! TO.C,C26*
X55225000Y10400000D03*
X56775000Y10400000D03*
G04 #@! TD*
D19*
G04 #@! TO.C,R11*
X7075000Y9750000D03*
X5425000Y9750000D03*
G04 #@! TD*
D11*
G04 #@! TO.C,C15*
X18400000Y75400000D03*
X18400000Y76950000D03*
G04 #@! TD*
D29*
G04 #@! TO.C,U3*
X89100000Y11100000D03*
X89100000Y13400000D03*
D26*
X82800000Y13400000D03*
D29*
X89100000Y15700000D03*
G04 #@! TD*
D21*
G04 #@! TO.C,SW1*
X22150000Y75900000D03*
X28650000Y75900000D03*
G04 #@! TD*
D18*
G04 #@! TO.C,C4*
X7025000Y8250000D03*
X5475000Y8250000D03*
G04 #@! TD*
D12*
G04 #@! TO.C,R23*
X79485000Y77675000D03*
X79485000Y79325000D03*
G04 #@! TD*
D29*
G04 #@! TO.C,U2*
X82850000Y8300000D03*
X82850000Y6000000D03*
D26*
X89150000Y6000000D03*
D29*
X82850000Y3700000D03*
G04 #@! TD*
D19*
G04 #@! TO.C,R29*
X88825000Y31511428D03*
X87175000Y31511428D03*
G04 #@! TD*
G04 #@! TO.C,R33*
X88825000Y21488570D03*
X87175000Y21488570D03*
G04 #@! TD*
G04 #@! TO.C,R24*
X79025000Y65700000D03*
X77375000Y65700000D03*
G04 #@! TD*
D15*
G04 #@! TO.C,R6*
X8175000Y60940000D03*
X9825000Y60940000D03*
G04 #@! TD*
D30*
G04 #@! TO.C,J7*
X69900000Y17020000D03*
X64850000Y17020000D03*
X69900000Y19560000D03*
X64850000Y19560000D03*
X69900000Y22100000D03*
X64850000Y22100000D03*
X69900000Y24640000D03*
X64850000Y24640000D03*
X69900000Y27180000D03*
X64850000Y27180000D03*
X69900000Y29720000D03*
X64850000Y29720000D03*
X69900000Y32260000D03*
X64850000Y32260000D03*
X69900000Y34800000D03*
X64850000Y34800000D03*
X69900000Y37340000D03*
X64850000Y37340000D03*
X69900000Y39880000D03*
X64850000Y39880000D03*
X69900000Y42420000D03*
X64850000Y42420000D03*
X69900000Y44960000D03*
X64850000Y44960000D03*
X69900000Y47500000D03*
X64850000Y47500000D03*
X69900000Y50040000D03*
X64850000Y50040000D03*
X69900000Y52580000D03*
X64850000Y52580000D03*
X69900000Y55120000D03*
X64850000Y55120000D03*
X69900000Y57660000D03*
X64850000Y57660000D03*
X69900000Y60200000D03*
X64850000Y60200000D03*
X69900000Y62740000D03*
X64850000Y62740000D03*
X69900000Y65280000D03*
X64850000Y65280000D03*
X40100000Y17020000D03*
X35050000Y17020000D03*
X40100000Y19560000D03*
X35050000Y19560000D03*
X40100000Y22100000D03*
X35050000Y22100000D03*
X40100000Y24640000D03*
X35050000Y24640000D03*
X40100000Y27180000D03*
X35050000Y27180000D03*
X40100000Y29720000D03*
X35050000Y29720000D03*
X40100000Y32260000D03*
X35050000Y32260000D03*
X40100000Y34800000D03*
X35050000Y34800000D03*
X40100000Y37340000D03*
X35050000Y37340000D03*
X40100000Y39880000D03*
X35050000Y39880000D03*
X40100000Y42420000D03*
X35050000Y42420000D03*
X40100000Y44960000D03*
X35050000Y44960000D03*
X40100000Y47500000D03*
X35050000Y47500000D03*
X40100000Y50040000D03*
X35050000Y50040000D03*
X40100000Y52580000D03*
X35050000Y52580000D03*
X40100000Y55120000D03*
X35050000Y55120000D03*
X40100000Y57660000D03*
X35050000Y57660000D03*
X40100000Y60200000D03*
X35050000Y60200000D03*
X40100000Y62740000D03*
X35050000Y62740000D03*
X40100000Y65280000D03*
X35050000Y65280000D03*
G04 #@! TD*
D15*
G04 #@! TO.C,R8*
X8175000Y63450000D03*
X9825000Y63450000D03*
G04 #@! TD*
D31*
G04 #@! TO.C,D2*
X81000000Y77712500D03*
X81000000Y79287500D03*
G04 #@! TD*
D19*
G04 #@! TO.C,R30*
X88825000Y29005714D03*
X87175000Y29005714D03*
G04 #@! TD*
D11*
G04 #@! TO.C,C13*
X77700000Y12675000D03*
X77700000Y14225000D03*
G04 #@! TD*
D32*
G04 #@! TO.C,J6*
X12980000Y5405000D03*
D33*
X15000000Y5405000D03*
D34*
X16230000Y5405000D03*
D32*
X13980000Y5405000D03*
D33*
X11960000Y5405000D03*
D34*
X10730000Y5405000D03*
G04 #@! TD*
D26*
G04 #@! TO.C,TP5*
X20750000Y2900000D03*
G04 #@! TD*
D18*
G04 #@! TO.C,C24*
X56775000Y8400000D03*
X55225000Y8400000D03*
G04 #@! TD*
D31*
G04 #@! TO.C,D3*
X76485000Y77612500D03*
X76485000Y79187500D03*
G04 #@! TD*
G04 #@! TO.C,D1*
X85985000Y77612500D03*
X85985000Y79187500D03*
G04 #@! TD*
D16*
G04 #@! TO.C,C10*
X92200000Y5050000D03*
X92200000Y3150000D03*
G04 #@! TD*
D35*
G04 #@! TO.C,D4*
X73212500Y71000000D03*
X74787500Y71000000D03*
G04 #@! TD*
D15*
G04 #@! TO.C,R4*
X8175000Y55920000D03*
X9825000Y55920000D03*
G04 #@! TD*
D20*
G04 #@! TO.C,C1*
X25875000Y72762500D03*
X25875000Y71212500D03*
G04 #@! TD*
D36*
G04 #@! TO.C,SW2*
X21200000Y19840000D03*
X21200000Y22380000D03*
X21200000Y24920000D03*
X21200000Y27460000D03*
X21200000Y30000000D03*
X21200000Y32540000D03*
X21200000Y35080000D03*
X21200000Y37620000D03*
X21200000Y40160000D03*
X12600000Y40160000D03*
X12600000Y37620000D03*
X12600000Y35080000D03*
X12600000Y32540000D03*
X12600000Y30000000D03*
X12600000Y27460000D03*
X12600000Y24920000D03*
X12600000Y22380000D03*
X12600000Y19840000D03*
G04 #@! TD*
D26*
G04 #@! TO.C,TP6*
X20750000Y9250000D03*
G04 #@! TD*
D13*
G04 #@! TO.C,C20*
X58475000Y24540000D03*
X60025000Y24540000D03*
G04 #@! TD*
M02*
