G04 #@! TF.GenerationSoftware,KiCad,Pcbnew,7.0.9-7.0.9~ubuntu22.04.1*
G04 #@! TF.CreationDate,2023-12-06T12:24:42-05:00*
G04 #@! TF.ProjectId,mpw-mb1,6d70772d-6d62-4312-9e6b-696361645f70,2.2.5*
G04 #@! TF.SameCoordinates,PX35e1f20PY8044ea0*
G04 #@! TF.FileFunction,Other,User*
%FSLAX46Y46*%
G04 Gerber Fmt 4.6, Leading zero omitted, Abs format (unit mm)*
G04 Created by KiCad (PCBNEW 7.0.9-7.0.9~ubuntu22.04.1) date 2023-12-06 12:24:42*
%MOMM*%
%LPD*%
G01*
G04 APERTURE LIST*
%ADD10C,0.150000*%
G04 APERTURE END LIST*
D10*
X48128572Y90795181D02*
X48319048Y90795181D01*
X48319048Y90795181D02*
X48414286Y90842800D01*
X48414286Y90842800D02*
X48461905Y90890420D01*
X48461905Y90890420D02*
X48557143Y91033277D01*
X48557143Y91033277D02*
X48604762Y91223753D01*
X48604762Y91223753D02*
X48604762Y91604705D01*
X48604762Y91604705D02*
X48557143Y91699943D01*
X48557143Y91699943D02*
X48509524Y91747562D01*
X48509524Y91747562D02*
X48414286Y91795181D01*
X48414286Y91795181D02*
X48223810Y91795181D01*
X48223810Y91795181D02*
X48128572Y91747562D01*
X48128572Y91747562D02*
X48080953Y91699943D01*
X48080953Y91699943D02*
X48033334Y91604705D01*
X48033334Y91604705D02*
X48033334Y91366610D01*
X48033334Y91366610D02*
X48080953Y91271372D01*
X48080953Y91271372D02*
X48128572Y91223753D01*
X48128572Y91223753D02*
X48223810Y91176134D01*
X48223810Y91176134D02*
X48414286Y91176134D01*
X48414286Y91176134D02*
X48509524Y91223753D01*
X48509524Y91223753D02*
X48557143Y91271372D01*
X48557143Y91271372D02*
X48604762Y91366610D01*
X49080953Y90795181D02*
X49271429Y90795181D01*
X49271429Y90795181D02*
X49366667Y90842800D01*
X49366667Y90842800D02*
X49414286Y90890420D01*
X49414286Y90890420D02*
X49509524Y91033277D01*
X49509524Y91033277D02*
X49557143Y91223753D01*
X49557143Y91223753D02*
X49557143Y91604705D01*
X49557143Y91604705D02*
X49509524Y91699943D01*
X49509524Y91699943D02*
X49461905Y91747562D01*
X49461905Y91747562D02*
X49366667Y91795181D01*
X49366667Y91795181D02*
X49176191Y91795181D01*
X49176191Y91795181D02*
X49080953Y91747562D01*
X49080953Y91747562D02*
X49033334Y91699943D01*
X49033334Y91699943D02*
X48985715Y91604705D01*
X48985715Y91604705D02*
X48985715Y91366610D01*
X48985715Y91366610D02*
X49033334Y91271372D01*
X49033334Y91271372D02*
X49080953Y91223753D01*
X49080953Y91223753D02*
X49176191Y91176134D01*
X49176191Y91176134D02*
X49366667Y91176134D01*
X49366667Y91176134D02*
X49461905Y91223753D01*
X49461905Y91223753D02*
X49509524Y91271372D01*
X49509524Y91271372D02*
X49557143Y91366610D01*
X49985715Y90890420D02*
X50033334Y90842800D01*
X50033334Y90842800D02*
X49985715Y90795181D01*
X49985715Y90795181D02*
X49938096Y90842800D01*
X49938096Y90842800D02*
X49985715Y90890420D01*
X49985715Y90890420D02*
X49985715Y90795181D01*
X50414286Y91699943D02*
X50461905Y91747562D01*
X50461905Y91747562D02*
X50557143Y91795181D01*
X50557143Y91795181D02*
X50795238Y91795181D01*
X50795238Y91795181D02*
X50890476Y91747562D01*
X50890476Y91747562D02*
X50938095Y91699943D01*
X50938095Y91699943D02*
X50985714Y91604705D01*
X50985714Y91604705D02*
X50985714Y91509467D01*
X50985714Y91509467D02*
X50938095Y91366610D01*
X50938095Y91366610D02*
X50366667Y90795181D01*
X50366667Y90795181D02*
X50985714Y90795181D01*
X51604762Y91795181D02*
X51700000Y91795181D01*
X51700000Y91795181D02*
X51795238Y91747562D01*
X51795238Y91747562D02*
X51842857Y91699943D01*
X51842857Y91699943D02*
X51890476Y91604705D01*
X51890476Y91604705D02*
X51938095Y91414229D01*
X51938095Y91414229D02*
X51938095Y91176134D01*
X51938095Y91176134D02*
X51890476Y90985658D01*
X51890476Y90985658D02*
X51842857Y90890420D01*
X51842857Y90890420D02*
X51795238Y90842800D01*
X51795238Y90842800D02*
X51700000Y90795181D01*
X51700000Y90795181D02*
X51604762Y90795181D01*
X51604762Y90795181D02*
X51509524Y90842800D01*
X51509524Y90842800D02*
X51461905Y90890420D01*
X51461905Y90890420D02*
X51414286Y90985658D01*
X51414286Y90985658D02*
X51366667Y91176134D01*
X51366667Y91176134D02*
X51366667Y91414229D01*
X51366667Y91414229D02*
X51414286Y91604705D01*
X51414286Y91604705D02*
X51461905Y91699943D01*
X51461905Y91699943D02*
X51509524Y91747562D01*
X51509524Y91747562D02*
X51604762Y91795181D01*
X53128572Y90795181D02*
X53128572Y91461848D01*
X53128572Y91366610D02*
X53176191Y91414229D01*
X53176191Y91414229D02*
X53271429Y91461848D01*
X53271429Y91461848D02*
X53414286Y91461848D01*
X53414286Y91461848D02*
X53509524Y91414229D01*
X53509524Y91414229D02*
X53557143Y91318991D01*
X53557143Y91318991D02*
X53557143Y90795181D01*
X53557143Y91318991D02*
X53604762Y91414229D01*
X53604762Y91414229D02*
X53700000Y91461848D01*
X53700000Y91461848D02*
X53842857Y91461848D01*
X53842857Y91461848D02*
X53938096Y91414229D01*
X53938096Y91414229D02*
X53985715Y91318991D01*
X53985715Y91318991D02*
X53985715Y90795181D01*
X54461905Y90795181D02*
X54461905Y91461848D01*
X54461905Y91366610D02*
X54509524Y91414229D01*
X54509524Y91414229D02*
X54604762Y91461848D01*
X54604762Y91461848D02*
X54747619Y91461848D01*
X54747619Y91461848D02*
X54842857Y91414229D01*
X54842857Y91414229D02*
X54890476Y91318991D01*
X54890476Y91318991D02*
X54890476Y90795181D01*
X54890476Y91318991D02*
X54938095Y91414229D01*
X54938095Y91414229D02*
X55033333Y91461848D01*
X55033333Y91461848D02*
X55176190Y91461848D01*
X55176190Y91461848D02*
X55271429Y91414229D01*
X55271429Y91414229D02*
X55319048Y91318991D01*
X55319048Y91318991D02*
X55319048Y90795181D01*
X101300000Y68760000D02*
X101300000Y90686420D01*
X2100000Y68760000D02*
X2100000Y90686420D01*
X101300000Y90100000D02*
X2100000Y90100000D01*
X101300000Y90100000D02*
X2100000Y90100000D01*
X101300000Y90100000D02*
X100173496Y89513579D01*
X101300000Y90100000D02*
X100173496Y90686421D01*
X2100000Y90100000D02*
X3226504Y90686421D01*
X2100000Y90100000D02*
X3226504Y89513579D01*
X-7495181Y-1363094D02*
X-7495181Y-744047D01*
X-7495181Y-744047D02*
X-7114229Y-1077380D01*
X-7114229Y-1077380D02*
X-7114229Y-934523D01*
X-7114229Y-934523D02*
X-7066610Y-839285D01*
X-7066610Y-839285D02*
X-7018991Y-791666D01*
X-7018991Y-791666D02*
X-6923753Y-744047D01*
X-6923753Y-744047D02*
X-6685658Y-744047D01*
X-6685658Y-744047D02*
X-6590420Y-791666D01*
X-6590420Y-791666D02*
X-6542800Y-839285D01*
X-6542800Y-839285D02*
X-6495181Y-934523D01*
X-6495181Y-934523D02*
X-6495181Y-1220237D01*
X-6495181Y-1220237D02*
X-6542800Y-1315475D01*
X-6542800Y-1315475D02*
X-6590420Y-1363094D01*
X-6590420Y-315475D02*
X-6542800Y-267856D01*
X-6542800Y-267856D02*
X-6495181Y-315475D01*
X-6495181Y-315475D02*
X-6542800Y-363094D01*
X-6542800Y-363094D02*
X-6590420Y-315475D01*
X-6590420Y-315475D02*
X-6495181Y-315475D01*
X-7495181Y65477D02*
X-7495181Y732143D01*
X-7495181Y732143D02*
X-6495181Y303572D01*
X-7495181Y1589286D02*
X-7495181Y1113096D01*
X-7495181Y1113096D02*
X-7018991Y1065477D01*
X-7018991Y1065477D02*
X-7066610Y1113096D01*
X-7066610Y1113096D02*
X-7114229Y1208334D01*
X-7114229Y1208334D02*
X-7114229Y1446429D01*
X-7114229Y1446429D02*
X-7066610Y1541667D01*
X-7066610Y1541667D02*
X-7018991Y1589286D01*
X-7018991Y1589286D02*
X-6923753Y1636905D01*
X-6923753Y1636905D02*
X-6685658Y1636905D01*
X-6685658Y1636905D02*
X-6590420Y1589286D01*
X-6590420Y1589286D02*
X-6542800Y1541667D01*
X-6542800Y1541667D02*
X-6495181Y1446429D01*
X-6495181Y1446429D02*
X-6495181Y1208334D01*
X-6495181Y1208334D02*
X-6542800Y1113096D01*
X-6542800Y1113096D02*
X-6590420Y1065477D01*
X-6495181Y2827382D02*
X-7161848Y2827382D01*
X-7066610Y2827382D02*
X-7114229Y2875001D01*
X-7114229Y2875001D02*
X-7161848Y2970239D01*
X-7161848Y2970239D02*
X-7161848Y3113096D01*
X-7161848Y3113096D02*
X-7114229Y3208334D01*
X-7114229Y3208334D02*
X-7018991Y3255953D01*
X-7018991Y3255953D02*
X-6495181Y3255953D01*
X-7018991Y3255953D02*
X-7114229Y3303572D01*
X-7114229Y3303572D02*
X-7161848Y3398810D01*
X-7161848Y3398810D02*
X-7161848Y3541667D01*
X-7161848Y3541667D02*
X-7114229Y3636906D01*
X-7114229Y3636906D02*
X-7018991Y3684525D01*
X-7018991Y3684525D02*
X-6495181Y3684525D01*
X-6495181Y4160715D02*
X-7161848Y4160715D01*
X-7066610Y4160715D02*
X-7114229Y4208334D01*
X-7114229Y4208334D02*
X-7161848Y4303572D01*
X-7161848Y4303572D02*
X-7161848Y4446429D01*
X-7161848Y4446429D02*
X-7114229Y4541667D01*
X-7114229Y4541667D02*
X-7018991Y4589286D01*
X-7018991Y4589286D02*
X-6495181Y4589286D01*
X-7018991Y4589286D02*
X-7114229Y4636905D01*
X-7114229Y4636905D02*
X-7161848Y4732143D01*
X-7161848Y4732143D02*
X-7161848Y4875000D01*
X-7161848Y4875000D02*
X-7114229Y4970239D01*
X-7114229Y4970239D02*
X-7018991Y5017858D01*
X-7018991Y5017858D02*
X-6495181Y5017858D01*
X3250000Y3750000D02*
X-6386420Y3750000D01*
X3250000Y0D02*
X-6386420Y0D01*
X-5800000Y3750000D02*
X-5800000Y0D01*
X-5800000Y3750000D02*
X-5800000Y0D01*
X-5800000Y3750000D02*
X-5213579Y2623496D01*
X-5800000Y3750000D02*
X-6386421Y2623496D01*
X-5800000Y0D02*
X-6386421Y1126504D01*
X-5800000Y0D02*
X-5213579Y1126504D01*
X48135294Y88501903D02*
X48325770Y88501903D01*
X48325770Y88501903D02*
X48421008Y88549522D01*
X48421008Y88549522D02*
X48468627Y88597142D01*
X48468627Y88597142D02*
X48563865Y88739999D01*
X48563865Y88739999D02*
X48611484Y88930475D01*
X48611484Y88930475D02*
X48611484Y89311427D01*
X48611484Y89311427D02*
X48563865Y89406665D01*
X48563865Y89406665D02*
X48516246Y89454284D01*
X48516246Y89454284D02*
X48421008Y89501903D01*
X48421008Y89501903D02*
X48230532Y89501903D01*
X48230532Y89501903D02*
X48135294Y89454284D01*
X48135294Y89454284D02*
X48087675Y89406665D01*
X48087675Y89406665D02*
X48040056Y89311427D01*
X48040056Y89311427D02*
X48040056Y89073332D01*
X48040056Y89073332D02*
X48087675Y88978094D01*
X48087675Y88978094D02*
X48135294Y88930475D01*
X48135294Y88930475D02*
X48230532Y88882856D01*
X48230532Y88882856D02*
X48421008Y88882856D01*
X48421008Y88882856D02*
X48516246Y88930475D01*
X48516246Y88930475D02*
X48563865Y88978094D01*
X48563865Y88978094D02*
X48611484Y89073332D01*
X48944818Y89501903D02*
X49611484Y89501903D01*
X49611484Y89501903D02*
X49182913Y88501903D01*
X49992437Y88597142D02*
X50040056Y88549522D01*
X50040056Y88549522D02*
X49992437Y88501903D01*
X49992437Y88501903D02*
X49944818Y88549522D01*
X49944818Y88549522D02*
X49992437Y88597142D01*
X49992437Y88597142D02*
X49992437Y88501903D01*
X50659103Y89501903D02*
X50754341Y89501903D01*
X50754341Y89501903D02*
X50849579Y89454284D01*
X50849579Y89454284D02*
X50897198Y89406665D01*
X50897198Y89406665D02*
X50944817Y89311427D01*
X50944817Y89311427D02*
X50992436Y89120951D01*
X50992436Y89120951D02*
X50992436Y88882856D01*
X50992436Y88882856D02*
X50944817Y88692380D01*
X50944817Y88692380D02*
X50897198Y88597142D01*
X50897198Y88597142D02*
X50849579Y88549522D01*
X50849579Y88549522D02*
X50754341Y88501903D01*
X50754341Y88501903D02*
X50659103Y88501903D01*
X50659103Y88501903D02*
X50563865Y88549522D01*
X50563865Y88549522D02*
X50516246Y88597142D01*
X50516246Y88597142D02*
X50468627Y88692380D01*
X50468627Y88692380D02*
X50421008Y88882856D01*
X50421008Y88882856D02*
X50421008Y89120951D01*
X50421008Y89120951D02*
X50468627Y89311427D01*
X50468627Y89311427D02*
X50516246Y89406665D01*
X50516246Y89406665D02*
X50563865Y89454284D01*
X50563865Y89454284D02*
X50659103Y89501903D01*
X51611484Y89501903D02*
X51706722Y89501903D01*
X51706722Y89501903D02*
X51801960Y89454284D01*
X51801960Y89454284D02*
X51849579Y89406665D01*
X51849579Y89406665D02*
X51897198Y89311427D01*
X51897198Y89311427D02*
X51944817Y89120951D01*
X51944817Y89120951D02*
X51944817Y88882856D01*
X51944817Y88882856D02*
X51897198Y88692380D01*
X51897198Y88692380D02*
X51849579Y88597142D01*
X51849579Y88597142D02*
X51801960Y88549522D01*
X51801960Y88549522D02*
X51706722Y88501903D01*
X51706722Y88501903D02*
X51611484Y88501903D01*
X51611484Y88501903D02*
X51516246Y88549522D01*
X51516246Y88549522D02*
X51468627Y88597142D01*
X51468627Y88597142D02*
X51421008Y88692380D01*
X51421008Y88692380D02*
X51373389Y88882856D01*
X51373389Y88882856D02*
X51373389Y89120951D01*
X51373389Y89120951D02*
X51421008Y89311427D01*
X51421008Y89311427D02*
X51468627Y89406665D01*
X51468627Y89406665D02*
X51516246Y89454284D01*
X51516246Y89454284D02*
X51611484Y89501903D01*
X53135294Y88501903D02*
X53135294Y89168570D01*
X53135294Y89073332D02*
X53182913Y89120951D01*
X53182913Y89120951D02*
X53278151Y89168570D01*
X53278151Y89168570D02*
X53421008Y89168570D01*
X53421008Y89168570D02*
X53516246Y89120951D01*
X53516246Y89120951D02*
X53563865Y89025713D01*
X53563865Y89025713D02*
X53563865Y88501903D01*
X53563865Y89025713D02*
X53611484Y89120951D01*
X53611484Y89120951D02*
X53706722Y89168570D01*
X53706722Y89168570D02*
X53849579Y89168570D01*
X53849579Y89168570D02*
X53944818Y89120951D01*
X53944818Y89120951D02*
X53992437Y89025713D01*
X53992437Y89025713D02*
X53992437Y88501903D01*
X54468627Y88501903D02*
X54468627Y89168570D01*
X54468627Y89073332D02*
X54516246Y89120951D01*
X54516246Y89120951D02*
X54611484Y89168570D01*
X54611484Y89168570D02*
X54754341Y89168570D01*
X54754341Y89168570D02*
X54849579Y89120951D01*
X54849579Y89120951D02*
X54897198Y89025713D01*
X54897198Y89025713D02*
X54897198Y88501903D01*
X54897198Y89025713D02*
X54944817Y89120951D01*
X54944817Y89120951D02*
X55040055Y89168570D01*
X55040055Y89168570D02*
X55182912Y89168570D01*
X55182912Y89168570D02*
X55278151Y89120951D01*
X55278151Y89120951D02*
X55325770Y89025713D01*
X55325770Y89025713D02*
X55325770Y88501903D01*
X3750000Y77750000D02*
X3750000Y88486420D01*
X100750000Y77750000D02*
X100750000Y88486420D01*
X3750000Y87900000D02*
X100750000Y87900000D01*
X3750000Y87900000D02*
X100750000Y87900000D01*
X3750000Y87900000D02*
X4876504Y88486421D01*
X3750000Y87900000D02*
X4876504Y87313579D01*
X100750000Y87900000D02*
X99623496Y87313579D01*
X100750000Y87900000D02*
X99623496Y88486421D01*
X108204819Y36785716D02*
X108204819Y37452382D01*
X108204819Y37452382D02*
X109204819Y37023811D01*
X108204819Y37738097D02*
X108204819Y38357144D01*
X108204819Y38357144D02*
X108585771Y38023811D01*
X108585771Y38023811D02*
X108585771Y38166668D01*
X108585771Y38166668D02*
X108633390Y38261906D01*
X108633390Y38261906D02*
X108681009Y38309525D01*
X108681009Y38309525D02*
X108776247Y38357144D01*
X108776247Y38357144D02*
X109014342Y38357144D01*
X109014342Y38357144D02*
X109109580Y38309525D01*
X109109580Y38309525D02*
X109157200Y38261906D01*
X109157200Y38261906D02*
X109204819Y38166668D01*
X109204819Y38166668D02*
X109204819Y37880954D01*
X109204819Y37880954D02*
X109157200Y37785716D01*
X109157200Y37785716D02*
X109109580Y37738097D01*
X109109580Y38785716D02*
X109157200Y38833335D01*
X109157200Y38833335D02*
X109204819Y38785716D01*
X109204819Y38785716D02*
X109157200Y38738097D01*
X109157200Y38738097D02*
X109109580Y38785716D01*
X109109580Y38785716D02*
X109204819Y38785716D01*
X108204819Y39738096D02*
X108204819Y39261906D01*
X108204819Y39261906D02*
X108681009Y39214287D01*
X108681009Y39214287D02*
X108633390Y39261906D01*
X108633390Y39261906D02*
X108585771Y39357144D01*
X108585771Y39357144D02*
X108585771Y39595239D01*
X108585771Y39595239D02*
X108633390Y39690477D01*
X108633390Y39690477D02*
X108681009Y39738096D01*
X108681009Y39738096D02*
X108776247Y39785715D01*
X108776247Y39785715D02*
X109014342Y39785715D01*
X109014342Y39785715D02*
X109109580Y39738096D01*
X109109580Y39738096D02*
X109157200Y39690477D01*
X109157200Y39690477D02*
X109204819Y39595239D01*
X109204819Y39595239D02*
X109204819Y39357144D01*
X109204819Y39357144D02*
X109157200Y39261906D01*
X109157200Y39261906D02*
X109109580Y39214287D01*
X108204819Y40404763D02*
X108204819Y40500001D01*
X108204819Y40500001D02*
X108252438Y40595239D01*
X108252438Y40595239D02*
X108300057Y40642858D01*
X108300057Y40642858D02*
X108395295Y40690477D01*
X108395295Y40690477D02*
X108585771Y40738096D01*
X108585771Y40738096D02*
X108823866Y40738096D01*
X108823866Y40738096D02*
X109014342Y40690477D01*
X109014342Y40690477D02*
X109109580Y40642858D01*
X109109580Y40642858D02*
X109157200Y40595239D01*
X109157200Y40595239D02*
X109204819Y40500001D01*
X109204819Y40500001D02*
X109204819Y40404763D01*
X109204819Y40404763D02*
X109157200Y40309525D01*
X109157200Y40309525D02*
X109109580Y40261906D01*
X109109580Y40261906D02*
X109014342Y40214287D01*
X109014342Y40214287D02*
X108823866Y40166668D01*
X108823866Y40166668D02*
X108585771Y40166668D01*
X108585771Y40166668D02*
X108395295Y40214287D01*
X108395295Y40214287D02*
X108300057Y40261906D01*
X108300057Y40261906D02*
X108252438Y40309525D01*
X108252438Y40309525D02*
X108204819Y40404763D01*
X109204819Y41928573D02*
X108538152Y41928573D01*
X108633390Y41928573D02*
X108585771Y41976192D01*
X108585771Y41976192D02*
X108538152Y42071430D01*
X108538152Y42071430D02*
X108538152Y42214287D01*
X108538152Y42214287D02*
X108585771Y42309525D01*
X108585771Y42309525D02*
X108681009Y42357144D01*
X108681009Y42357144D02*
X109204819Y42357144D01*
X108681009Y42357144D02*
X108585771Y42404763D01*
X108585771Y42404763D02*
X108538152Y42500001D01*
X108538152Y42500001D02*
X108538152Y42642858D01*
X108538152Y42642858D02*
X108585771Y42738097D01*
X108585771Y42738097D02*
X108681009Y42785716D01*
X108681009Y42785716D02*
X109204819Y42785716D01*
X109204819Y43261906D02*
X108538152Y43261906D01*
X108633390Y43261906D02*
X108585771Y43309525D01*
X108585771Y43309525D02*
X108538152Y43404763D01*
X108538152Y43404763D02*
X108538152Y43547620D01*
X108538152Y43547620D02*
X108585771Y43642858D01*
X108585771Y43642858D02*
X108681009Y43690477D01*
X108681009Y43690477D02*
X109204819Y43690477D01*
X108681009Y43690477D02*
X108585771Y43738096D01*
X108585771Y43738096D02*
X108538152Y43833334D01*
X108538152Y43833334D02*
X108538152Y43976191D01*
X108538152Y43976191D02*
X108585771Y44071430D01*
X108585771Y44071430D02*
X108681009Y44119049D01*
X108681009Y44119049D02*
X109204819Y44119049D01*
X101250000Y77250000D02*
X110486420Y77250000D01*
X101250000Y3750000D02*
X110486420Y3750000D01*
X109900000Y77250000D02*
X109900000Y3750000D01*
X109900000Y77250000D02*
X109900000Y3750000D01*
X109900000Y77250000D02*
X110486421Y76123496D01*
X109900000Y77250000D02*
X109313579Y76123496D01*
X109900000Y3750000D02*
X109313579Y4876504D01*
X109900000Y3750000D02*
X110486421Y4876504D01*
X48428571Y93395181D02*
X47857143Y93395181D01*
X48142857Y93395181D02*
X48142857Y94395181D01*
X48142857Y94395181D02*
X48047619Y94252324D01*
X48047619Y94252324D02*
X47952381Y94157086D01*
X47952381Y94157086D02*
X47857143Y94109467D01*
X49047619Y94395181D02*
X49142857Y94395181D01*
X49142857Y94395181D02*
X49238095Y94347562D01*
X49238095Y94347562D02*
X49285714Y94299943D01*
X49285714Y94299943D02*
X49333333Y94204705D01*
X49333333Y94204705D02*
X49380952Y94014229D01*
X49380952Y94014229D02*
X49380952Y93776134D01*
X49380952Y93776134D02*
X49333333Y93585658D01*
X49333333Y93585658D02*
X49285714Y93490420D01*
X49285714Y93490420D02*
X49238095Y93442800D01*
X49238095Y93442800D02*
X49142857Y93395181D01*
X49142857Y93395181D02*
X49047619Y93395181D01*
X49047619Y93395181D02*
X48952381Y93442800D01*
X48952381Y93442800D02*
X48904762Y93490420D01*
X48904762Y93490420D02*
X48857143Y93585658D01*
X48857143Y93585658D02*
X48809524Y93776134D01*
X48809524Y93776134D02*
X48809524Y94014229D01*
X48809524Y94014229D02*
X48857143Y94204705D01*
X48857143Y94204705D02*
X48904762Y94299943D01*
X48904762Y94299943D02*
X48952381Y94347562D01*
X48952381Y94347562D02*
X49047619Y94395181D01*
X50238095Y94061848D02*
X50238095Y93395181D01*
X50000000Y94442800D02*
X49761905Y93728515D01*
X49761905Y93728515D02*
X50380952Y93728515D01*
X50761905Y93490420D02*
X50809524Y93442800D01*
X50809524Y93442800D02*
X50761905Y93395181D01*
X50761905Y93395181D02*
X50714286Y93442800D01*
X50714286Y93442800D02*
X50761905Y93490420D01*
X50761905Y93490420D02*
X50761905Y93395181D01*
X51714285Y94395181D02*
X51238095Y94395181D01*
X51238095Y94395181D02*
X51190476Y93918991D01*
X51190476Y93918991D02*
X51238095Y93966610D01*
X51238095Y93966610D02*
X51333333Y94014229D01*
X51333333Y94014229D02*
X51571428Y94014229D01*
X51571428Y94014229D02*
X51666666Y93966610D01*
X51666666Y93966610D02*
X51714285Y93918991D01*
X51714285Y93918991D02*
X51761904Y93823753D01*
X51761904Y93823753D02*
X51761904Y93585658D01*
X51761904Y93585658D02*
X51714285Y93490420D01*
X51714285Y93490420D02*
X51666666Y93442800D01*
X51666666Y93442800D02*
X51571428Y93395181D01*
X51571428Y93395181D02*
X51333333Y93395181D01*
X51333333Y93395181D02*
X51238095Y93442800D01*
X51238095Y93442800D02*
X51190476Y93490420D01*
X52380952Y94395181D02*
X52476190Y94395181D01*
X52476190Y94395181D02*
X52571428Y94347562D01*
X52571428Y94347562D02*
X52619047Y94299943D01*
X52619047Y94299943D02*
X52666666Y94204705D01*
X52666666Y94204705D02*
X52714285Y94014229D01*
X52714285Y94014229D02*
X52714285Y93776134D01*
X52714285Y93776134D02*
X52666666Y93585658D01*
X52666666Y93585658D02*
X52619047Y93490420D01*
X52619047Y93490420D02*
X52571428Y93442800D01*
X52571428Y93442800D02*
X52476190Y93395181D01*
X52476190Y93395181D02*
X52380952Y93395181D01*
X52380952Y93395181D02*
X52285714Y93442800D01*
X52285714Y93442800D02*
X52238095Y93490420D01*
X52238095Y93490420D02*
X52190476Y93585658D01*
X52190476Y93585658D02*
X52142857Y93776134D01*
X52142857Y93776134D02*
X52142857Y94014229D01*
X52142857Y94014229D02*
X52190476Y94204705D01*
X52190476Y94204705D02*
X52238095Y94299943D01*
X52238095Y94299943D02*
X52285714Y94347562D01*
X52285714Y94347562D02*
X52380952Y94395181D01*
X53904762Y93395181D02*
X53904762Y94061848D01*
X53904762Y93966610D02*
X53952381Y94014229D01*
X53952381Y94014229D02*
X54047619Y94061848D01*
X54047619Y94061848D02*
X54190476Y94061848D01*
X54190476Y94061848D02*
X54285714Y94014229D01*
X54285714Y94014229D02*
X54333333Y93918991D01*
X54333333Y93918991D02*
X54333333Y93395181D01*
X54333333Y93918991D02*
X54380952Y94014229D01*
X54380952Y94014229D02*
X54476190Y94061848D01*
X54476190Y94061848D02*
X54619047Y94061848D01*
X54619047Y94061848D02*
X54714286Y94014229D01*
X54714286Y94014229D02*
X54761905Y93918991D01*
X54761905Y93918991D02*
X54761905Y93395181D01*
X55238095Y93395181D02*
X55238095Y94061848D01*
X55238095Y93966610D02*
X55285714Y94014229D01*
X55285714Y94014229D02*
X55380952Y94061848D01*
X55380952Y94061848D02*
X55523809Y94061848D01*
X55523809Y94061848D02*
X55619047Y94014229D01*
X55619047Y94014229D02*
X55666666Y93918991D01*
X55666666Y93918991D02*
X55666666Y93395181D01*
X55666666Y93918991D02*
X55714285Y94014229D01*
X55714285Y94014229D02*
X55809523Y94061848D01*
X55809523Y94061848D02*
X55952380Y94061848D01*
X55952380Y94061848D02*
X56047619Y94014229D01*
X56047619Y94014229D02*
X56095238Y93918991D01*
X56095238Y93918991D02*
X56095238Y93395181D01*
X0Y78500000D02*
X0Y93286420D01*
X104500000Y78500000D02*
X104500000Y93286420D01*
X0Y92700000D02*
X104500000Y92700000D01*
X0Y92700000D02*
X104500000Y92700000D01*
X0Y92700000D02*
X1126504Y93286421D01*
X0Y92700000D02*
X1126504Y92113579D01*
X104500000Y92700000D02*
X103373496Y92113579D01*
X104500000Y92700000D02*
X103373496Y93286421D01*
X-1363095Y-5654819D02*
X-744048Y-5654819D01*
X-744048Y-5654819D02*
X-1077381Y-6035771D01*
X-1077381Y-6035771D02*
X-934524Y-6035771D01*
X-934524Y-6035771D02*
X-839286Y-6083390D01*
X-839286Y-6083390D02*
X-791667Y-6131009D01*
X-791667Y-6131009D02*
X-744048Y-6226247D01*
X-744048Y-6226247D02*
X-744048Y-6464342D01*
X-744048Y-6464342D02*
X-791667Y-6559580D01*
X-791667Y-6559580D02*
X-839286Y-6607200D01*
X-839286Y-6607200D02*
X-934524Y-6654819D01*
X-934524Y-6654819D02*
X-1220238Y-6654819D01*
X-1220238Y-6654819D02*
X-1315476Y-6607200D01*
X-1315476Y-6607200D02*
X-1363095Y-6559580D01*
X-315476Y-6559580D02*
X-267857Y-6607200D01*
X-267857Y-6607200D02*
X-315476Y-6654819D01*
X-315476Y-6654819D02*
X-363095Y-6607200D01*
X-363095Y-6607200D02*
X-315476Y-6559580D01*
X-315476Y-6559580D02*
X-315476Y-6654819D01*
X65476Y-5654819D02*
X732142Y-5654819D01*
X732142Y-5654819D02*
X303571Y-6654819D01*
X1589285Y-5654819D02*
X1113095Y-5654819D01*
X1113095Y-5654819D02*
X1065476Y-6131009D01*
X1065476Y-6131009D02*
X1113095Y-6083390D01*
X1113095Y-6083390D02*
X1208333Y-6035771D01*
X1208333Y-6035771D02*
X1446428Y-6035771D01*
X1446428Y-6035771D02*
X1541666Y-6083390D01*
X1541666Y-6083390D02*
X1589285Y-6131009D01*
X1589285Y-6131009D02*
X1636904Y-6226247D01*
X1636904Y-6226247D02*
X1636904Y-6464342D01*
X1636904Y-6464342D02*
X1589285Y-6559580D01*
X1589285Y-6559580D02*
X1541666Y-6607200D01*
X1541666Y-6607200D02*
X1446428Y-6654819D01*
X1446428Y-6654819D02*
X1208333Y-6654819D01*
X1208333Y-6654819D02*
X1113095Y-6607200D01*
X1113095Y-6607200D02*
X1065476Y-6559580D01*
X2827381Y-6654819D02*
X2827381Y-5988152D01*
X2827381Y-6083390D02*
X2875000Y-6035771D01*
X2875000Y-6035771D02*
X2970238Y-5988152D01*
X2970238Y-5988152D02*
X3113095Y-5988152D01*
X3113095Y-5988152D02*
X3208333Y-6035771D01*
X3208333Y-6035771D02*
X3255952Y-6131009D01*
X3255952Y-6131009D02*
X3255952Y-6654819D01*
X3255952Y-6131009D02*
X3303571Y-6035771D01*
X3303571Y-6035771D02*
X3398809Y-5988152D01*
X3398809Y-5988152D02*
X3541666Y-5988152D01*
X3541666Y-5988152D02*
X3636905Y-6035771D01*
X3636905Y-6035771D02*
X3684524Y-6131009D01*
X3684524Y-6131009D02*
X3684524Y-6654819D01*
X4160714Y-6654819D02*
X4160714Y-5988152D01*
X4160714Y-6083390D02*
X4208333Y-6035771D01*
X4208333Y-6035771D02*
X4303571Y-5988152D01*
X4303571Y-5988152D02*
X4446428Y-5988152D01*
X4446428Y-5988152D02*
X4541666Y-6035771D01*
X4541666Y-6035771D02*
X4589285Y-6131009D01*
X4589285Y-6131009D02*
X4589285Y-6654819D01*
X4589285Y-6131009D02*
X4636904Y-6035771D01*
X4636904Y-6035771D02*
X4732142Y-5988152D01*
X4732142Y-5988152D02*
X4874999Y-5988152D01*
X4874999Y-5988152D02*
X4970238Y-6035771D01*
X4970238Y-6035771D02*
X5017857Y-6131009D01*
X5017857Y-6131009D02*
X5017857Y-6654819D01*
X3750000Y3250000D02*
X3750000Y-5286420D01*
X0Y3250000D02*
X0Y-5286420D01*
X3750000Y-4700000D02*
X0Y-4700000D01*
X3750000Y-4700000D02*
X0Y-4700000D01*
X3750000Y-4700000D02*
X2623496Y-5286421D01*
X3750000Y-4700000D02*
X2623496Y-4113579D01*
X0Y-4700000D02*
X1126504Y-4113579D01*
X0Y-4700000D02*
X1126504Y-5286421D01*
X111733390Y37023811D02*
X111685771Y36928573D01*
X111685771Y36928573D02*
X111638152Y36880954D01*
X111638152Y36880954D02*
X111542914Y36833335D01*
X111542914Y36833335D02*
X111495295Y36833335D01*
X111495295Y36833335D02*
X111400057Y36880954D01*
X111400057Y36880954D02*
X111352438Y36928573D01*
X111352438Y36928573D02*
X111304819Y37023811D01*
X111304819Y37023811D02*
X111304819Y37214287D01*
X111304819Y37214287D02*
X111352438Y37309525D01*
X111352438Y37309525D02*
X111400057Y37357144D01*
X111400057Y37357144D02*
X111495295Y37404763D01*
X111495295Y37404763D02*
X111542914Y37404763D01*
X111542914Y37404763D02*
X111638152Y37357144D01*
X111638152Y37357144D02*
X111685771Y37309525D01*
X111685771Y37309525D02*
X111733390Y37214287D01*
X111733390Y37214287D02*
X111733390Y37023811D01*
X111733390Y37023811D02*
X111781009Y36928573D01*
X111781009Y36928573D02*
X111828628Y36880954D01*
X111828628Y36880954D02*
X111923866Y36833335D01*
X111923866Y36833335D02*
X112114342Y36833335D01*
X112114342Y36833335D02*
X112209580Y36880954D01*
X112209580Y36880954D02*
X112257200Y36928573D01*
X112257200Y36928573D02*
X112304819Y37023811D01*
X112304819Y37023811D02*
X112304819Y37214287D01*
X112304819Y37214287D02*
X112257200Y37309525D01*
X112257200Y37309525D02*
X112209580Y37357144D01*
X112209580Y37357144D02*
X112114342Y37404763D01*
X112114342Y37404763D02*
X111923866Y37404763D01*
X111923866Y37404763D02*
X111828628Y37357144D01*
X111828628Y37357144D02*
X111781009Y37309525D01*
X111781009Y37309525D02*
X111733390Y37214287D01*
X112304819Y38357144D02*
X112304819Y37785716D01*
X112304819Y38071430D02*
X111304819Y38071430D01*
X111304819Y38071430D02*
X111447676Y37976192D01*
X111447676Y37976192D02*
X111542914Y37880954D01*
X111542914Y37880954D02*
X111590533Y37785716D01*
X112209580Y38785716D02*
X112257200Y38833335D01*
X112257200Y38833335D02*
X112304819Y38785716D01*
X112304819Y38785716D02*
X112257200Y38738097D01*
X112257200Y38738097D02*
X112209580Y38785716D01*
X112209580Y38785716D02*
X112304819Y38785716D01*
X111304819Y39452382D02*
X111304819Y39547620D01*
X111304819Y39547620D02*
X111352438Y39642858D01*
X111352438Y39642858D02*
X111400057Y39690477D01*
X111400057Y39690477D02*
X111495295Y39738096D01*
X111495295Y39738096D02*
X111685771Y39785715D01*
X111685771Y39785715D02*
X111923866Y39785715D01*
X111923866Y39785715D02*
X112114342Y39738096D01*
X112114342Y39738096D02*
X112209580Y39690477D01*
X112209580Y39690477D02*
X112257200Y39642858D01*
X112257200Y39642858D02*
X112304819Y39547620D01*
X112304819Y39547620D02*
X112304819Y39452382D01*
X112304819Y39452382D02*
X112257200Y39357144D01*
X112257200Y39357144D02*
X112209580Y39309525D01*
X112209580Y39309525D02*
X112114342Y39261906D01*
X112114342Y39261906D02*
X111923866Y39214287D01*
X111923866Y39214287D02*
X111685771Y39214287D01*
X111685771Y39214287D02*
X111495295Y39261906D01*
X111495295Y39261906D02*
X111400057Y39309525D01*
X111400057Y39309525D02*
X111352438Y39357144D01*
X111352438Y39357144D02*
X111304819Y39452382D01*
X111304819Y40404763D02*
X111304819Y40500001D01*
X111304819Y40500001D02*
X111352438Y40595239D01*
X111352438Y40595239D02*
X111400057Y40642858D01*
X111400057Y40642858D02*
X111495295Y40690477D01*
X111495295Y40690477D02*
X111685771Y40738096D01*
X111685771Y40738096D02*
X111923866Y40738096D01*
X111923866Y40738096D02*
X112114342Y40690477D01*
X112114342Y40690477D02*
X112209580Y40642858D01*
X112209580Y40642858D02*
X112257200Y40595239D01*
X112257200Y40595239D02*
X112304819Y40500001D01*
X112304819Y40500001D02*
X112304819Y40404763D01*
X112304819Y40404763D02*
X112257200Y40309525D01*
X112257200Y40309525D02*
X112209580Y40261906D01*
X112209580Y40261906D02*
X112114342Y40214287D01*
X112114342Y40214287D02*
X111923866Y40166668D01*
X111923866Y40166668D02*
X111685771Y40166668D01*
X111685771Y40166668D02*
X111495295Y40214287D01*
X111495295Y40214287D02*
X111400057Y40261906D01*
X111400057Y40261906D02*
X111352438Y40309525D01*
X111352438Y40309525D02*
X111304819Y40404763D01*
X112304819Y41928573D02*
X111638152Y41928573D01*
X111733390Y41928573D02*
X111685771Y41976192D01*
X111685771Y41976192D02*
X111638152Y42071430D01*
X111638152Y42071430D02*
X111638152Y42214287D01*
X111638152Y42214287D02*
X111685771Y42309525D01*
X111685771Y42309525D02*
X111781009Y42357144D01*
X111781009Y42357144D02*
X112304819Y42357144D01*
X111781009Y42357144D02*
X111685771Y42404763D01*
X111685771Y42404763D02*
X111638152Y42500001D01*
X111638152Y42500001D02*
X111638152Y42642858D01*
X111638152Y42642858D02*
X111685771Y42738097D01*
X111685771Y42738097D02*
X111781009Y42785716D01*
X111781009Y42785716D02*
X112304819Y42785716D01*
X112304819Y43261906D02*
X111638152Y43261906D01*
X111733390Y43261906D02*
X111685771Y43309525D01*
X111685771Y43309525D02*
X111638152Y43404763D01*
X111638152Y43404763D02*
X111638152Y43547620D01*
X111638152Y43547620D02*
X111685771Y43642858D01*
X111685771Y43642858D02*
X111781009Y43690477D01*
X111781009Y43690477D02*
X112304819Y43690477D01*
X111781009Y43690477D02*
X111685771Y43738096D01*
X111685771Y43738096D02*
X111638152Y43833334D01*
X111638152Y43833334D02*
X111638152Y43976191D01*
X111638152Y43976191D02*
X111685771Y44071430D01*
X111685771Y44071430D02*
X111781009Y44119049D01*
X111781009Y44119049D02*
X112304819Y44119049D01*
X102000000Y81000000D02*
X113586420Y81000000D01*
X102000000Y0D02*
X113586420Y0D01*
X113000000Y81000000D02*
X113000000Y0D01*
X113000000Y81000000D02*
X113000000Y0D01*
X113000000Y81000000D02*
X113586421Y79873496D01*
X113000000Y81000000D02*
X112413579Y79873496D01*
X113000000Y0D02*
X112413579Y1126504D01*
X113000000Y0D02*
X113586421Y1126504D01*
M02*
